<?xml version="1.0" encoding="UTF-8"?> <svg xmlns="http://www.w3.org/2000/svg" id="Group_85" data-name="Group 85" width="961" height="660" viewBox="0 0 961 660"><rect id="Rectangle_63" data-name="Rectangle 63" width="961" height="660" fill="#fff" opacity="0"></rect><g id="Group_84" data-name="Group 84" transform="translate(0 4)"><g id="Group_83" data-name="Group 83" transform="translate(0 -25)"><g id="Group_79" data-name="Group 79" transform="translate(-124 49)"><path id="Path_8" data-name="Path 8" d="M2929.5,47.864v164" transform="translate(-2570 4.136)" fill="none" stroke="#051c2c" stroke-width="2"></path><path id="Path_11" data-name="Path 11" d="M2929.5,265.835V369.266" transform="translate(-2570 50.734)" fill="none" stroke="#051c2c" stroke-width="2"></path><g id="Group_63" data-name="Group 63" transform="translate(243 63)"><g id="Group_73" data-name="Group 73"><path id="Path_56" data-name="Path 56" d="M5,0H227a5,5,0,0,1,5,5V35a5,5,0,0,1-5,5H5a5,5,0,0,1-5-5V5A5,5,0,0,1,5,0Z" fill="#e6f0ff"></path><text id="Layer_Norm" data-name="Layer Norm" transform="translate(59 28)" fill="#051c2c" font-size="20" font-family="OpenSans-Semibold, Open Sans" font-weight="600"><tspan x="0" y="0">Layer Norm</tspan></text></g></g><g id="Group_66" data-name="Group 66" transform="translate(243 273.842)"><path id="Path_59" data-name="Path 59" d="M5,0H227a5,5,0,0,1,5,5V35a5,5,0,0,1-5,5H5a5,5,0,0,1-5-5V5A5,5,0,0,1,5,0Z" transform="translate(0 0.158)" fill="#e6f0ff"></path><text id="Layer_Norm-2" data-name="Layer Norm" transform="translate(59 28.158)" fill="#051c2c" font-size="20" font-family="OpenSans-Semibold, Open Sans" font-weight="600"><tspan x="0" y="0">Layer Norm</tspan></text></g><g id="Group_64" data-name="Group 64" transform="translate(243 157.888)"><path id="Path_57" data-name="Path 57" d="M5,0H227a5,5,0,0,1,5,5V35a5,5,0,0,1-5,5H5a5,5,0,0,1-5-5V5A5,5,0,0,1,5,0Z" transform="translate(0 0.112)" fill="#1b54f8"></path><text id="Adapter" transform="translate(77 28.112)" fill="#fff" font-size="20" font-family="OpenSans-Semibold, Open Sans" font-weight="600"><tspan x="0" y="0">Adapter</tspan></text></g><g id="Group_67" data-name="Group 67" transform="translate(243 368.263)"><path id="Path_60" data-name="Path 60" d="M5,0H227a5,5,0,0,1,5,5V35a5,5,0,0,1-5,5H5a5,5,0,0,1-5-5V5A5,5,0,0,1,5,0Z" transform="translate(0 -0.263)" fill="#1b54f8"></path><text id="Adapter-2" data-name="Adapter" transform="translate(77 27.737)" fill="#fff" font-size="20" font-family="OpenSans-Semibold, Open Sans" font-weight="600"><tspan x="0" y="0">Adapter</tspan></text></g><g id="Group_65" data-name="Group 65" transform="translate(243 210.036)"><path id="Path_58" data-name="Path 58" d="M5,0H227a5,5,0,0,1,5,5V35a5,5,0,0,1-5,5H5a5,5,0,0,1-5-5V5A5,5,0,0,1,5,0Z" transform="translate(0 -0.036)" fill="#e6f0ff"></path><text id="Feed-Forward" transform="translate(50 27.964)" fill="#051c2c" font-size="20" font-family="OpenSans-Semibold, Open Sans" font-weight="600"><tspan x="0" y="0">Feed-Forward</tspan></text></g><g id="Group_68" data-name="Group 68" transform="translate(243 419.791)"><g id="Rectangle_45" data-name="Rectangle 45" transform="translate(0 0.209)" fill="#fff" stroke="#1b54f8" stroke-width="1"><rect width="232" height="58" rx="5" stroke="none"></rect><rect x="0.5" y="0.5" width="231" height="57" rx="4.5" fill="none"></rect></g><text id="Multi-Headed_Attention" data-name="Multi-Headed Attention" transform="translate(116 23.209)" fill="#051c2c" font-size="20" font-family="OpenSans-Semibold, Open Sans" font-weight="600"><tspan x="-65" y="0">Multi-Headed</tspan><tspan x="-45" y="27">Attention</tspan></text></g><g id="Group_61" data-name="Group 61" transform="translate(344 329.705)"><g id="Ellipse_5" data-name="Ellipse 5" transform="translate(0 0.295)" fill="#fff" stroke="#051c2c" stroke-width="2"><circle cx="15.5" cy="15.5" r="15.5" stroke="none"></circle><circle cx="15.5" cy="15.5" r="14.5" fill="none"></circle></g><text id="_" data-name="+" transform="translate(16 23.295)" fill="#1b54f8" font-size="20" font-family="OpenSans-Semibold, Open Sans" font-weight="600"><tspan x="-5" y="0">+</tspan></text></g><g id="Group_62" data-name="Group 62" transform="translate(344 115)"><g id="Ellipse_4" data-name="Ellipse 4" fill="#fff" stroke="#051c2c" stroke-width="2"><circle cx="15.5" cy="15.5" r="15.5" stroke="none"></circle><circle cx="15.5" cy="15.5" r="14.5" fill="none"></circle></g><text id="_2" data-name="+" transform="translate(16 23)" fill="#1b54f8" font-size="20" font-family="OpenSans-Semibold, Open Sans" font-weight="600"><tspan x="-5" y="0">+</tspan></text></g><path id="Path_9" data-name="Path 9" d="M2929.5,241.311h132.384V104.392H2948.993" transform="translate(-2570 26.108)" fill="none" stroke="#051c2c" stroke-width="2"></path><path id="Path_10" data-name="Path 10" d="M2929.5,214.139v22" transform="translate(-2570 38.861)" fill="none" stroke="#051c2c" stroke-width="2"></path><path id="Path_12" data-name="Path 12" d="M2929.5,415v32.237" transform="translate(-2570 71.791)" fill="none" stroke="#051c2c" stroke-width="2"></path><path id="Path_13" data-name="Path 13" d="M2929.5,437.038h135.1V285.322H2951.079" transform="translate(-2570 60.178)" fill="none" stroke="#051c2c" stroke-width="2"></path><path id="Path_14" data-name="Path 14" d="M2766.249,145h-26.1V355h26.1" transform="translate(-2531.095 33)" fill="none" stroke="#051c2c" stroke-width="2"></path><path id="Path_15" data-name="Path 15" d="M2740.145,245h-38.086" transform="translate(-2531.095 38)" fill="none" stroke="#051c2c" stroke-width="2"></path><path id="Polygon_4" data-name="Polygon 4" d="M6.5,0,13,11H0Z" transform="translate(353 42)" fill="#051c2c"></path><path id="Polygon_5" data-name="Polygon 5" d="M6.5,0,13,11H0Z" transform="translate(375 137) rotate(-90)" fill="#051c2c"></path><path id="Polygon_10" data-name="Polygon 10" d="M6.5,0,13,11H0Z" transform="translate(243 172) rotate(90)" fill="#051c2c"></path><path id="Polygon_11" data-name="Polygon 11" d="M6.5,0,13,11H0Z" transform="translate(243 382) rotate(90)" fill="#051c2c"></path><path id="Polygon_9" data-name="Polygon 9" d="M6.5,0,13,11H0Z" transform="translate(375 352) rotate(-90)" fill="#051c2c"></path><path id="Polygon_6" data-name="Polygon 6" d="M6.5,0,13,11H0Z" transform="translate(353 250)" fill="#051c2c"></path><path id="Polygon_7" data-name="Polygon 7" d="M6.5,0,13,11H0Z" transform="translate(353 314)" fill="#051c2c"></path><path id="Polygon_8" data-name="Polygon 8" d="M6.5,0,13,11H0Z" transform="translate(353 478)" fill="#051c2c"></path><text id="Adapters_are_Updated" data-name="Adapters are Updated" transform="translate(154 182) rotate(90)" fill="#051c2c" font-size="20" font-family="OpenSans-Semibold, Open Sans" font-weight="600"><tspan x="0" y="0">Adapters are Updated</tspan></text></g><g id="Group_81" data-name="Group 81" transform="translate(-102 -12)"><g id="Group_74" data-name="Group 74" transform="translate(25 28)"><path id="Path_23" data-name="Path 23" d="M150,60.48,140.56,79.2h19.447l-2.381-4.452Zm-.6,2.8L156.5,77.374H142.337Z" transform="translate(687.88 -30.52)" fill="#051c2c"></path><text id="h" transform="translate(848 48)" fill="#051c2c" font-size="26" font-family="ProximaNova-MediumIt, Proxima Nova" font-weight="500" font-style="italic"><tspan x="0" y="0">h</tspan></text><text id="h_h_" data-name="h’ = h +" transform="translate(743 50)" fill="#051c2c" font-size="26" font-family="ProximaNova-MediumIt, Proxima Nova" font-weight="500" font-style="italic"><tspan x="0" y="0">h’ = h +</tspan></text></g><text id="Adapter-3" data-name="Adapter" transform="translate(649.56 140)" fill="#051c2c" font-size="20" font-family="OpenSans-Semibold, Open Sans" font-weight="600"><tspan x="-38" y="0">Adapter</tspan></text><g id="Group_75" data-name="Group 75" transform="translate(9.56 54)"><path id="Path_22" data-name="Path 22" d="M150,60.48,140.56,79.2h19.447l-2.381-4.452Zm-.6,2.8L156.5,77.374H142.337Z" transform="translate(439.88 54.48)" fill="#051c2c"></path><text id="h-2" data-name="h" transform="translate(600 133)" fill="#051c2c" font-size="26" font-family="ProximaNova-MediumIt, Proxima Nova" font-weight="500" font-style="italic"><tspan x="0" y="0">h</tspan></text></g><g id="Group_76" data-name="Group 76" transform="translate(3.56 415)"><text id="h-3" data-name="h" transform="translate(600 133)" fill="#051c2c" font-size="26" font-family="ProximaNova-MediumIt, Proxima Nova" font-weight="500" font-style="italic"><tspan x="0" y="0">h</tspan></text></g><g id="Group_70" data-name="Group 70" transform="translate(11.56 111.471)"><path id="Path_27" data-name="Path 27" d="M0,76.529H222L179.192,0H42.306Z" transform="translate(617 310.529)" fill="#1b54f8"></path><text id="Feed-Forward_Down-Project" data-name="Feed-Forward Down-Project" transform="translate(728 342.529)" fill="#fff" font-size="20" font-family="OpenSans-Semibold, Open Sans" font-weight="600"><tspan x="-66" y="0">Feed-Forward</tspan><tspan x="-65" y="28">Down-Project</tspan></text></g><text id="h-4" data-name="h" transform="translate(820.56 117)" fill="#051c2c" font-size="26" font-family="ProximaNova-MediumIt, Proxima Nova" font-weight="500" font-style="italic"><tspan x="0" y="0">h</tspan></text><path id="Path_30" data-name="Path 30" d="M3300,47.864v85.917" transform="translate(-2559.94 288.691)" fill="none" stroke="#051c2c" stroke-width="2"></path><path id="Path_29" data-name="Path 29" d="M3300,396.875V501.957" transform="translate(-2559.94 107.625)" fill="none" stroke="#051c2c" stroke-width="2"></path><g id="Rectangle_47" data-name="Rectangle 47" transform="translate(667.56 365.917)" fill="#fff" stroke="#1b54f8" stroke-width="1"><rect width="145" height="40" rx="5" stroke="none"></rect><rect x="0.5" y="0.5" width="144" height="39" rx="4.5" fill="none"></rect></g><g id="Rectangle_48" data-name="Rectangle 48" transform="translate(628.56 520)" fill="#fff" stroke="#1b54f8" stroke-width="1"><rect width="222" height="40" rx="5" stroke="none"></rect><rect x="0.5" y="0.5" width="221" height="39" rx="4.5" fill="none"></rect></g><path id="Path_28" data-name="Path 28" d="M3300,47.864V292.918" transform="translate(-2559.94 19.636)" fill="none" stroke="#051c2c" stroke-width="2"></path><path id="Polygon_12" data-name="Polygon 12" d="M6.5,0,13,11H0Z" transform="translate(733.56 62)" fill="#051c2c"></path><path id="Polygon_14" data-name="Polygon 14" d="M6.5,0,13,11H0Z" transform="translate(733.56 499)" fill="#051c2c"></path><g id="Group_77" data-name="Group 77" transform="translate(9.56 47)"><path id="Polygon_13" data-name="Polygon 13" d="M6.5,0,13,11H0Z" transform="translate(747 92) rotate(-90)" fill="#1b54f8"></path><path id="Path_31" data-name="Path 31" d="M3315,545.31h136.345V94.818l-114.282.016" transform="translate(-2583 -9.318)" fill="none" stroke="#1b54f8" stroke-width="2"></path></g><g id="Group_69" data-name="Group 69" transform="translate(11.56 70.554)"><path id="Path_26" data-name="Path 26" d="M0,0H222L179.192,76.529H42.306Z" transform="translate(617 145.446)" fill="#1b54f8"></path><text id="Feed-Forward_Up-Project" data-name="Feed-Forward Up-Project" transform="translate(728 176.446)" fill="#fff" font-size="20" font-family="OpenSans-Semibold, Open Sans" font-weight="600"><tspan x="-66" y="0">Feed-Forward</tspan><tspan x="-50" y="28">Up-Project</tspan></text></g><g id="Group_72" data-name="Group 72" transform="translate(8.56 72.554)"><path id="Path_62" data-name="Path 62" d="M5,0H140a5,5,0,0,1,5,5V35a5,5,0,0,1-5,5H5a5,5,0,0,1-5-5V5A5,5,0,0,1,5,0Z" transform="translate(659 236.446)" fill="#e6f0ff"></path><text id="Nonlinearity" transform="translate(732 264.446)" fill="#051c2c" font-size="20" font-family="OpenSans-Semibold, Open Sans" font-weight="600"><tspan x="-60" y="0">Nonlinearity</tspan></text></g><g id="Rectangle_46" data-name="Rectangle 46" transform="translate(628.56 159)" fill="#fff" stroke="#1b54f8" stroke-width="1"><rect width="222" height="40" rx="5" stroke="none"></rect><rect x="0.5" y="0.5" width="221" height="39" rx="4.5" fill="none"></rect></g><g id="Group_71" data-name="Group 71" transform="translate(8.56 47)"><g id="Ellipse_6" data-name="Ellipse 6" transform="translate(716 70)" fill="#fff" stroke="#051c2c" stroke-width="2"><circle cx="15.5" cy="15.5" r="15.5" stroke="none"></circle><circle cx="15.5" cy="15.5" r="14.5" fill="none"></circle></g><text id="_3" data-name="+" transform="translate(732 93)" fill="#1b54f8" font-size="20" font-family="OpenSans-Semibold, Open Sans" font-weight="600"><tspan x="-5" y="0">+</tspan></text></g><g id="Rectangle_62" data-name="Rectangle 62" transform="translate(561 86)" fill="none" stroke="#1b54f8" stroke-linecap="round" stroke-width="2" stroke-dasharray="4 6"><rect width="346" height="546" rx="35" stroke="none"></rect><rect x="1" y="1" width="344" height="544" rx="34" fill="none"></rect></g></g><g id="Group_82" data-name="Group 82" transform="translate(1273.681 808) rotate(180)"><path id="Polygon_15" data-name="Polygon 15" d="M6.5,0,13,11H0Z" transform="translate(525.08 274) rotate(90)" fill="#051c2c"></path><path id="Path_32" data-name="Path 32" d="M3019.6,280.563h61.229" transform="translate(-2561.25 -0.063)" fill="none" stroke="#051c2c" stroke-width="2"></path></g><g id="Group_102" data-name="Group 102" transform="translate(1277.352 441.5) rotate(180)"><path id="Polygon_15-2" data-name="Polygon 15" d="M6.5,0,13,11H0Z" transform="translate(500.75 274) rotate(90)" fill="#051c2c"></path><path id="Path_32-2" data-name="Path 32" d="M3019.6,280.563h36.9" transform="translate(-2561.25 -0.063)" fill="none" stroke="#051c2c" stroke-width="2"></path></g><text id="Hidden_Representation" data-name="Hidden Representation" transform="translate(819 525)" fill="#051c2c" font-size="16" font-family="OpenSans-Semibold, Open Sans" font-weight="600"><tspan x="0" y="0">Hidden </tspan><tspan x="0" y="18">Representation</tspan></text><text id="Skip_Connection" data-name="Skip Connection" transform="translate(822 158)" fill="#051c2c" font-size="16" font-family="OpenSans-Semibold, Open Sans" font-weight="600"><tspan x="0" y="0">Skip </tspan><tspan x="0" y="18">Connection</tspan></text></g><text id="LeewayHertz" transform="translate(822 633)" fill="#051c2c" font-size="20" font-family="Georgia"><tspan x="0" y="0">LeewayHertz</tspan></text></g></svg> 