<?xml version="1.0" encoding="UTF-8"?> <svg xmlns="http://www.w3.org/2000/svg" id="Group_36" data-name="Group 36" width="975" height="513" viewBox="0 0 975 513"><g id="Rectangle_49" data-name="Rectangle 49" fill="#fff" stroke="#707070" stroke-width="1" opacity="0"><rect width="975" height="513" stroke="none"></rect><rect x="0.5" y="0.5" width="974" height="512" fill="none"></rect></g><g id="Group_35" data-name="Group 35" transform="translate(0 -13)"><text id="This_is_a_total_waste_of_money" data-name="This is a total waste of money" transform="translate(48 178) rotate(90)" fill="#051c2c" font-size="20" font-family="OpenSans-Semibold, Open Sans" font-weight="600"><tspan x="0" y="0">This is a total waste of money</tspan></text><g id="Group_4" data-name="Group 4" transform="translate(138 175)"><rect id="Rectangle_9" data-name="Rectangle 9" width="65" height="287" fill="#e6f0ff"></rect><text id="Embedding_Layer" data-name="Embedding Layer" transform="translate(25 60) rotate(90)" fill="#051c2c" font-size="20" font-family="OpenSans-Semibold, Open Sans" font-weight="600"><tspan x="0" y="0">Embedding Layer</tspan></text></g><g id="Group_5" data-name="Group 5" transform="translate(385.939 175)"><rect id="Rectangle_10" data-name="Rectangle 10" width="65" height="287" transform="translate(0.061)" fill="#e6f0ff"></rect><text id="Transformer_Layer_1" data-name="Transformer Layer 1" transform="translate(25.061 46) rotate(90)" fill="#051c2c" font-size="20" font-family="OpenSans-Semibold, Open Sans" font-weight="600"><tspan x="0" y="0">Transformer Layer 1</tspan></text></g><g id="Group_6" data-name="Group 6" transform="translate(634.957 175)"><rect id="Rectangle_11" data-name="Rectangle 11" width="65" height="287" transform="translate(0.043)" fill="#e6f0ff"></rect><text id="Transformer_Layer_2" data-name="Transformer Layer 2" transform="translate(25.043 46) rotate(90)" fill="#051c2c" font-size="20" font-family="OpenSans-Semibold, Open Sans" font-weight="600"><tspan x="0" y="0">Transformer Layer 2</tspan></text></g><g id="Group_7" data-name="Group 7" transform="translate(744.835 175)"><rect id="Rectangle_12" data-name="Rectangle 12" width="65" height="287" transform="translate(0.165)" fill="#e6f0ff"></rect><text id="Transformer_Layer_N" data-name="Transformer Layer N" transform="translate(25.165 43) rotate(90)" fill="#051c2c" font-size="20" font-family="OpenSans-Semibold, Open Sans" font-weight="600"><tspan x="0" y="0">Transformer Layer N</tspan></text></g><text id="_BOS_" data-name="[BOS]" transform="translate(27 150)" fill="#051c2c" font-size="24" font-family="OpenSans-Semibold, Open Sans" font-weight="600"><tspan x="0" y="0">[BOS]</tspan></text><g id="Group_3" data-name="Group 3" transform="translate(249 200)"><g id="Rectangle_13" data-name="Rectangle 13" fill="#fff" stroke="#1b54f8" stroke-width="1"><rect width="92" height="30" stroke="none"></rect><rect x="0.5" y="0.5" width="91" height="29" fill="none"></rect></g><g id="Rectangle_14" data-name="Rectangle 14" transform="translate(0 52)" fill="#fff" stroke="#1b54f8" stroke-width="1"><rect width="92" height="30" stroke="none"></rect><rect x="0.5" y="0.5" width="91" height="29" fill="none"></rect></g><g id="Rectangle_15" data-name="Rectangle 15" transform="translate(0 104)" fill="#fff" stroke="#1b54f8" stroke-width="1"><rect width="92" height="30" stroke="none"></rect><rect x="0.5" y="0.5" width="91" height="29" fill="none"></rect></g><g id="Rectangle_16" data-name="Rectangle 16" transform="translate(0 156)" fill="#fff" stroke="#1b54f8" stroke-width="1"><rect width="92" height="30" stroke="none"></rect><rect x="0.5" y="0.5" width="91" height="29" fill="none"></rect></g><g id="Rectangle_17" data-name="Rectangle 17" transform="translate(0 208)" fill="#fff" stroke="#1b54f8" stroke-width="1"><rect width="92" height="30" stroke="none"></rect><rect x="0.5" y="0.5" width="91" height="29" fill="none"></rect></g></g><g id="Group_2" data-name="Group 2" transform="translate(496.948 200)"><g id="Rectangle_22" data-name="Rectangle 22" transform="translate(0.052)" fill="#fff" stroke="#1b54f8" stroke-width="1"><rect width="92" height="30" stroke="none"></rect><rect x="0.5" y="0.5" width="91" height="29" fill="none"></rect></g><g id="Rectangle_21" data-name="Rectangle 21" transform="translate(0.052 52)" fill="#fff" stroke="#1b54f8" stroke-width="1"><rect width="92" height="30" stroke="none"></rect><rect x="0.5" y="0.5" width="91" height="29" fill="none"></rect></g><g id="Rectangle_20" data-name="Rectangle 20" transform="translate(0.052 104)" fill="#fff" stroke="#1b54f8" stroke-width="1"><rect width="92" height="30" stroke="none"></rect><rect x="0.5" y="0.5" width="91" height="29" fill="none"></rect></g><g id="Rectangle_19" data-name="Rectangle 19" transform="translate(0.052 156)" fill="#fff" stroke="#1b54f8" stroke-width="1"><rect width="92" height="30" stroke="none"></rect><rect x="0.5" y="0.5" width="91" height="29" fill="none"></rect></g><g id="Rectangle_18" data-name="Rectangle 18" transform="translate(0.052 208)" fill="#fff" stroke="#1b54f8" stroke-width="1"><rect width="92" height="30" stroke="none"></rect><rect x="0.5" y="0.5" width="91" height="29" fill="none"></rect></g></g><g id="Group_1" data-name="Group 1" transform="translate(855.896 200)"><g id="Rectangle_27" data-name="Rectangle 27" transform="translate(0.104)" fill="#fff" stroke="#1b54f8" stroke-width="1"><rect width="92" height="30" stroke="none"></rect><rect x="0.5" y="0.5" width="91" height="29" fill="none"></rect></g><g id="Rectangle_26" data-name="Rectangle 26" transform="translate(0.104 52)" fill="#fff" stroke="#1b54f8" stroke-width="1"><rect width="92" height="30" stroke="none"></rect><rect x="0.5" y="0.5" width="91" height="29" fill="none"></rect></g><g id="Rectangle_25" data-name="Rectangle 25" transform="translate(0.104 104)" fill="#fff" stroke="#1b54f8" stroke-width="1"><rect width="92" height="30" stroke="none"></rect><rect x="0.5" y="0.5" width="91" height="29" fill="none"></rect></g><g id="Rectangle_24" data-name="Rectangle 24" transform="translate(0.104 156)" fill="#fff" stroke="#1b54f8" stroke-width="1"><rect width="92" height="30" stroke="none"></rect><rect x="0.5" y="0.5" width="91" height="29" fill="none"></rect></g><g id="Rectangle_23" data-name="Rectangle 23" transform="translate(0.104 208)" fill="#fff" stroke="#1b54f8" stroke-width="1"><rect width="92" height="30" stroke="none"></rect><rect x="0.5" y="0.5" width="91" height="29" fill="none"></rect></g></g><g id="Group_13" data-name="Group 13" transform="translate(-20 9)"><g id="Group_8" data-name="Group 8"><path id="Path_3" data-name="Path 3" d="M223,207.723h41.79" transform="translate(0 0.777)" fill="none" stroke="#051c2c" stroke-width="2"></path><path id="Polygon_1" data-name="Polygon 1" d="M4.382,0,8.764,7.512H0Z" transform="translate(269 204) rotate(90)" fill="#051c2c"></path></g><g id="Group_9" data-name="Group 9" transform="translate(0 52)"><path id="Path_3-2" data-name="Path 3" d="M223,207.723h41.79" transform="translate(0 0.777)" fill="none" stroke="#051c2c" stroke-width="2"></path><path id="Polygon_1-2" data-name="Polygon 1" d="M4.382,0,8.764,7.512H0Z" transform="translate(269 204) rotate(90)" fill="#051c2c"></path></g><g id="Group_10" data-name="Group 10" transform="translate(0 103)"><path id="Path_3-3" data-name="Path 3" d="M223,207.723h41.79" transform="translate(0 0.777)" fill="none" stroke="#051c2c" stroke-width="2"></path><path id="Polygon_1-3" data-name="Polygon 1" d="M4.382,0,8.764,7.512H0Z" transform="translate(269 204) rotate(90)" fill="#051c2c"></path></g><g id="Group_11" data-name="Group 11" transform="translate(0 155)"><path id="Path_3-4" data-name="Path 3" d="M223,207.723h41.79" transform="translate(0 0.777)" fill="none" stroke="#051c2c" stroke-width="2"></path><path id="Polygon_1-4" data-name="Polygon 1" d="M4.382,0,8.764,7.512H0Z" transform="translate(269 204) rotate(90)" fill="#051c2c"></path></g><g id="Group_12" data-name="Group 12" transform="translate(0 206)"><path id="Path_3-5" data-name="Path 3" d="M223,207.723h41.79" transform="translate(0 0.777)" fill="none" stroke="#051c2c" stroke-width="2"></path><path id="Polygon_1-5" data-name="Polygon 1" d="M4.382,0,8.764,7.512H0Z" transform="translate(269 204) rotate(90)" fill="#051c2c"></path></g></g><g id="Group_15" data-name="Group 15" transform="translate(117 9)"><g id="Group_8-2" data-name="Group 8"><path id="Path_3-6" data-name="Path 3" d="M223,207.723h41.79" transform="translate(0 0.777)" fill="none" stroke="#051c2c" stroke-width="2"></path><path id="Polygon_1-6" data-name="Polygon 1" d="M4.382,0,8.764,7.512H0Z" transform="translate(269 204) rotate(90)" fill="#051c2c"></path></g><g id="Group_9-2" data-name="Group 9" transform="translate(0 52)"><path id="Path_3-7" data-name="Path 3" d="M223,207.723h41.79" transform="translate(0 0.777)" fill="none" stroke="#051c2c" stroke-width="2"></path><path id="Polygon_1-7" data-name="Polygon 1" d="M4.382,0,8.764,7.512H0Z" transform="translate(269 204) rotate(90)" fill="#051c2c"></path></g><g id="Group_10-2" data-name="Group 10" transform="translate(0 103)"><path id="Path_3-8" data-name="Path 3" d="M223,207.723h41.79" transform="translate(0 0.777)" fill="none" stroke="#051c2c" stroke-width="2"></path><path id="Polygon_1-8" data-name="Polygon 1" d="M4.382,0,8.764,7.512H0Z" transform="translate(269 204) rotate(90)" fill="#051c2c"></path></g><g id="Group_11-2" data-name="Group 11" transform="translate(0 155)"><path id="Path_3-9" data-name="Path 3" d="M223,207.723h41.79" transform="translate(0 0.777)" fill="none" stroke="#051c2c" stroke-width="2"></path><path id="Polygon_1-9" data-name="Polygon 1" d="M4.382,0,8.764,7.512H0Z" transform="translate(269 204) rotate(90)" fill="#051c2c"></path></g><g id="Group_12-2" data-name="Group 12" transform="translate(0 206)"><path id="Path_3-10" data-name="Path 3" d="M223,207.723h41.79" transform="translate(0 0.777)" fill="none" stroke="#051c2c" stroke-width="2"></path><path id="Polygon_1-10" data-name="Polygon 1" d="M4.382,0,8.764,7.512H0Z" transform="translate(269 204) rotate(90)" fill="#051c2c"></path></g></g><g id="Group_16" data-name="Group 16" transform="translate(228 9)"><g id="Group_8-3" data-name="Group 8"><path id="Path_3-11" data-name="Path 3" d="M223,207.723h41.79" transform="translate(0 0.777)" fill="none" stroke="#051c2c" stroke-width="2"></path><path id="Polygon_1-11" data-name="Polygon 1" d="M4.382,0,8.764,7.512H0Z" transform="translate(269 204) rotate(90)" fill="#051c2c"></path></g><g id="Group_9-3" data-name="Group 9" transform="translate(0 52)"><path id="Path_3-12" data-name="Path 3" d="M223,207.723h41.79" transform="translate(0 0.777)" fill="none" stroke="#051c2c" stroke-width="2"></path><path id="Polygon_1-12" data-name="Polygon 1" d="M4.382,0,8.764,7.512H0Z" transform="translate(269 204) rotate(90)" fill="#051c2c"></path></g><g id="Group_10-3" data-name="Group 10" transform="translate(0 103)"><path id="Path_3-13" data-name="Path 3" d="M223,207.723h41.79" transform="translate(0 0.777)" fill="none" stroke="#051c2c" stroke-width="2"></path><path id="Polygon_1-13" data-name="Polygon 1" d="M4.382,0,8.764,7.512H0Z" transform="translate(269 204) rotate(90)" fill="#051c2c"></path></g><g id="Group_11-3" data-name="Group 11" transform="translate(0 155)"><path id="Path_3-14" data-name="Path 3" d="M223,207.723h41.79" transform="translate(0 0.777)" fill="none" stroke="#051c2c" stroke-width="2"></path><path id="Polygon_1-14" data-name="Polygon 1" d="M4.382,0,8.764,7.512H0Z" transform="translate(269 204) rotate(90)" fill="#051c2c"></path></g><g id="Group_12-3" data-name="Group 12" transform="translate(0 206)"><path id="Path_3-15" data-name="Path 3" d="M223,207.723h41.79" transform="translate(0 0.777)" fill="none" stroke="#051c2c" stroke-width="2"></path><path id="Polygon_1-15" data-name="Polygon 1" d="M4.382,0,8.764,7.512H0Z" transform="translate(269 204) rotate(90)" fill="#051c2c"></path></g></g><g id="Group_17" data-name="Group 17" transform="translate(366 9)"><g id="Group_8-4" data-name="Group 8"><path id="Path_3-16" data-name="Path 3" d="M223,207.723h41.79" transform="translate(0 0.777)" fill="none" stroke="#051c2c" stroke-width="2"></path><path id="Polygon_1-16" data-name="Polygon 1" d="M4.382,0,8.764,7.512H0Z" transform="translate(269 204) rotate(90)" fill="#051c2c"></path></g><g id="Group_9-4" data-name="Group 9" transform="translate(0 52)"><path id="Path_3-17" data-name="Path 3" d="M223,207.723h41.79" transform="translate(0 0.777)" fill="none" stroke="#051c2c" stroke-width="2"></path><path id="Polygon_1-17" data-name="Polygon 1" d="M4.382,0,8.764,7.512H0Z" transform="translate(269 204) rotate(90)" fill="#051c2c"></path></g><g id="Group_10-4" data-name="Group 10" transform="translate(0 103)"><path id="Path_3-18" data-name="Path 3" d="M223,207.723h41.79" transform="translate(0 0.777)" fill="none" stroke="#051c2c" stroke-width="2"></path><path id="Polygon_1-18" data-name="Polygon 1" d="M4.382,0,8.764,7.512H0Z" transform="translate(269 204) rotate(90)" fill="#051c2c"></path></g><g id="Group_11-4" data-name="Group 11" transform="translate(0 155)"><path id="Path_3-19" data-name="Path 3" d="M223,207.723h41.79" transform="translate(0 0.777)" fill="none" stroke="#051c2c" stroke-width="2"></path><path id="Polygon_1-19" data-name="Polygon 1" d="M4.382,0,8.764,7.512H0Z" transform="translate(269 204) rotate(90)" fill="#051c2c"></path></g><g id="Group_12-4" data-name="Group 12" transform="translate(0 206)"><path id="Path_3-20" data-name="Path 3" d="M223,207.723h41.79" transform="translate(0 0.777)" fill="none" stroke="#051c2c" stroke-width="2"></path><path id="Polygon_1-20" data-name="Polygon 1" d="M4.382,0,8.764,7.512H0Z" transform="translate(269 204) rotate(90)" fill="#051c2c"></path></g></g><g id="Group_18" data-name="Group 18" transform="translate(587 9)"><g id="Group_8-5" data-name="Group 8"><path id="Path_3-21" data-name="Path 3" d="M223,207.723h41.79" transform="translate(0 0.777)" fill="none" stroke="#051c2c" stroke-width="2"></path><path id="Polygon_1-21" data-name="Polygon 1" d="M4.382,0,8.764,7.512H0Z" transform="translate(269 204) rotate(90)" fill="#051c2c"></path></g><g id="Group_9-5" data-name="Group 9" transform="translate(0 52)"><path id="Path_3-22" data-name="Path 3" d="M223,207.723h41.79" transform="translate(0 0.777)" fill="none" stroke="#051c2c" stroke-width="2"></path><path id="Polygon_1-22" data-name="Polygon 1" d="M4.382,0,8.764,7.512H0Z" transform="translate(269 204) rotate(90)" fill="#051c2c"></path></g><g id="Group_10-5" data-name="Group 10" transform="translate(0 103)"><path id="Path_3-23" data-name="Path 3" d="M223,207.723h41.79" transform="translate(0 0.777)" fill="none" stroke="#051c2c" stroke-width="2"></path><path id="Polygon_1-23" data-name="Polygon 1" d="M4.382,0,8.764,7.512H0Z" transform="translate(269 204) rotate(90)" fill="#051c2c"></path></g><g id="Group_11-5" data-name="Group 11" transform="translate(0 155)"><path id="Path_3-24" data-name="Path 3" d="M223,207.723h41.79" transform="translate(0 0.777)" fill="none" stroke="#051c2c" stroke-width="2"></path><path id="Polygon_1-24" data-name="Polygon 1" d="M4.382,0,8.764,7.512H0Z" transform="translate(269 204) rotate(90)" fill="#051c2c"></path></g><g id="Group_12-5" data-name="Group 12" transform="translate(0 206)"><path id="Path_3-25" data-name="Path 3" d="M223,207.723h41.79" transform="translate(0 0.777)" fill="none" stroke="#051c2c" stroke-width="2"></path><path id="Polygon_1-25" data-name="Polygon 1" d="M4.382,0,8.764,7.512H0Z" transform="translate(269 204) rotate(90)" fill="#051c2c"></path></g></g><g id="Group_14" data-name="Group 14" transform="translate(-131 9)"><g id="Group_8-6" data-name="Group 8"><path id="Path_3-26" data-name="Path 3" d="M223,207.723h41.79" transform="translate(0 0.777)" fill="none" stroke="#051c2c" stroke-width="2"></path><path id="Polygon_1-26" data-name="Polygon 1" d="M4.382,0,8.764,7.512H0Z" transform="translate(269 204) rotate(90)" fill="#051c2c"></path></g><g id="Group_9-6" data-name="Group 9" transform="translate(0 52)"><path id="Path_3-27" data-name="Path 3" d="M223,207.723h41.79" transform="translate(0 0.777)" fill="none" stroke="#051c2c" stroke-width="2"></path><path id="Polygon_1-27" data-name="Polygon 1" d="M4.382,0,8.764,7.512H0Z" transform="translate(269 204) rotate(90)" fill="#051c2c"></path></g><g id="Group_10-6" data-name="Group 10" transform="translate(0 103)"><path id="Path_3-28" data-name="Path 3" d="M223,207.723h41.79" transform="translate(0 0.777)" fill="none" stroke="#051c2c" stroke-width="2"></path><path id="Polygon_1-28" data-name="Polygon 1" d="M4.382,0,8.764,7.512H0Z" transform="translate(269 204) rotate(90)" fill="#051c2c"></path></g><g id="Group_11-6" data-name="Group 11" transform="translate(0 155)"><path id="Path_3-29" data-name="Path 3" d="M223,207.723h41.79" transform="translate(0 0.777)" fill="none" stroke="#051c2c" stroke-width="2"></path><path id="Polygon_1-29" data-name="Polygon 1" d="M4.382,0,8.764,7.512H0Z" transform="translate(269 204) rotate(90)" fill="#051c2c"></path></g><g id="Group_12-6" data-name="Group 12" transform="translate(0 206)"><path id="Path_3-30" data-name="Path 3" d="M223,207.723h41.79" transform="translate(0 0.777)" fill="none" stroke="#051c2c" stroke-width="2"></path><path id="Polygon_1-30" data-name="Polygon 1" d="M4.382,0,8.764,7.512H0Z" transform="translate(269 204) rotate(90)" fill="#051c2c"></path></g></g><text id="LeewayHertz" transform="translate(832 499)" fill="#051c2c" font-size="20" font-family="Georgia"><tspan x="0" y="0">LeewayHertz</tspan></text><path id="Path_18" data-name="Path 18" d="M700,252.382h45" transform="translate(0 66.618)" fill="none" stroke="#051c2c" stroke-linecap="round" stroke-width="2" stroke-dasharray="2 4"></path><g id="Group_32" data-name="Group 32" transform="translate(-5554 397)"><rect id="Rectangle_10-2" data-name="Rectangle 10" width="65" height="116" transform="translate(5940 -364)" fill="#1b54f8"></rect><text id="Prefix" transform="translate(5965 -334) rotate(90)" fill="#fff" font-size="20" font-family="OpenSans-Semibold, Open Sans" font-weight="600"><tspan x="0" y="0">Prefix</tspan></text></g><g id="Group_33" data-name="Group 33" transform="translate(-5305 397)"><rect id="Rectangle_10-3" data-name="Rectangle 10" width="65" height="116" transform="translate(5940 -364)" fill="#1b54f8"></rect><text id="Prefix-2" data-name="Prefix" transform="translate(5965 -334) rotate(90)" fill="#fff" font-size="20" font-family="OpenSans-Semibold, Open Sans" font-weight="600"><tspan x="0" y="0">Prefix</tspan></text></g><g id="Group_34" data-name="Group 34" transform="translate(-5195 397)"><rect id="Rectangle_10-4" data-name="Rectangle 10" width="65" height="116" transform="translate(5940 -364)" fill="#1b54f8"></rect><text id="Prefix-3" data-name="Prefix" transform="translate(5965 -334) rotate(90)" fill="#fff" font-size="20" font-family="OpenSans-Semibold, Open Sans" font-weight="600"><tspan x="0" y="0">Prefix</tspan></text></g></g></svg> 