<?xml version="1.0" encoding="UTF-8"?> <svg xmlns="http://www.w3.org/2000/svg" id="Group_103" data-name="Group 103" width="975" height="431" viewBox="0 0 975 431"><rect id="Rectangle_74" data-name="Rectangle 74" width="975" height="431" fill="#fff" opacity="0"></rect><g id="Group_59" data-name="Group 59" transform="translate(0 -102)"><text id="LeewayHertz" transform="translate(843 511)" fill="#051c2c" font-size="20" font-family="Georgia"><tspan x="0" y="0">LeewayHertz</tspan></text><text id="Prefix_Embedding" data-name="Prefix Embedding" transform="translate(17 194)" fill="#051c2c" font-size="24" font-family="OpenSans-Bold, Open Sans" font-weight="700"><tspan x="0" y="0">Prefix Embedding</tspan></text><g id="Group_4" data-name="Group 4" transform="translate(148 290)"><rect id="Rectangle_9" data-name="Rectangle 9" width="65" height="186" fill="#e6f0ff"></rect><text id="Embedding_Layer" data-name="Embedding Layer" transform="translate(25 10) rotate(90)" fill="#051c2c" font-size="20" font-family="OpenSans-Semibold, Open Sans" font-weight="600"><tspan x="0" y="0">Embedding Layer</tspan></text></g><g id="Group_5" data-name="Group 5" transform="translate(395.939 134)"><rect id="Rectangle_10" data-name="Rectangle 10" width="65" height="342" transform="translate(0.061)" fill="#e6f0ff"></rect><text id="Transformer_Layer_1" data-name="Transformer Layer 1" transform="translate(25.061 73) rotate(90)" fill="#051c2c" font-size="20" font-family="OpenSans-Semibold, Open Sans" font-weight="600"><tspan x="0" y="0">Transformer Layer 1</tspan></text></g><g id="Group_6" data-name="Group 6" transform="translate(644.957 134)"><rect id="Rectangle_11" data-name="Rectangle 11" width="65" height="342" transform="translate(0.043)" fill="#e6f0ff"></rect><text id="Transformer_Layer_2" data-name="Transformer Layer 2" transform="translate(25.043 73) rotate(90)" fill="#051c2c" font-size="20" font-family="OpenSans-Semibold, Open Sans" font-weight="600"><tspan x="0" y="0">Transformer Layer 2</tspan></text></g><g id="Group_7" data-name="Group 7" transform="translate(754.835 134)"><rect id="Rectangle_12" data-name="Rectangle 12" width="65" height="342" transform="translate(0.165)" fill="#e6f0ff"></rect><text id="Transformer_Layer_N" data-name="Transformer Layer N" transform="translate(25.165 71) rotate(90)" fill="#051c2c" font-size="20" font-family="OpenSans-Semibold, Open Sans" font-weight="600"><tspan x="0" y="0">Transformer Layer N</tspan></text></g><text id="_BOS_" data-name="[BOS]" transform="translate(61 276)" fill="#051c2c" font-size="24" font-family="OpenSans-Semibold, Open Sans" font-weight="600"><tspan x="0" y="0">[BOS]</tspan></text><rect id="Rectangle_13" data-name="Rectangle 13" width="92" height="30" transform="translate(259 134)" fill="#1b54f8"></rect><rect id="Rectangle_14" data-name="Rectangle 14" width="92" height="30" transform="translate(259 186)" fill="#1b54f8"></rect><rect id="Rectangle_15" data-name="Rectangle 15" width="92" height="30" transform="translate(259 238)" fill="#1b54f8"></rect><g id="Rectangle_16" data-name="Rectangle 16" transform="translate(259 290)" fill="#fff" stroke="#1b54f8" stroke-width="1"><rect width="92" height="30" stroke="none"></rect><rect x="0.5" y="0.5" width="91" height="29" fill="none"></rect></g><g id="Rectangle_51" data-name="Rectangle 51" transform="translate(259 394)" fill="#fff" stroke="#1b54f8" stroke-width="1"><rect width="92" height="30" stroke="none"></rect><rect x="0.5" y="0.5" width="91" height="29" fill="none"></rect></g><g id="Rectangle_17" data-name="Rectangle 17" transform="translate(259 342)" fill="#fff" stroke="#1b54f8" stroke-width="1"><rect width="92" height="30" stroke="none"></rect><rect x="0.5" y="0.5" width="91" height="29" fill="none"></rect></g><g id="Rectangle_50" data-name="Rectangle 50" transform="translate(259 446)" fill="#fff" stroke="#1b54f8" stroke-width="1"><rect width="92" height="30" stroke="none"></rect><rect x="0.5" y="0.5" width="91" height="29" fill="none"></rect></g><g id="Group_38" data-name="Group 38" transform="translate(10 3)"><g id="Rectangle_52" data-name="Rectangle 52" transform="translate(497 391)" fill="none" stroke="#1b54f8" stroke-width="1"><rect width="92" height="30" stroke="none"></rect><rect x="0.5" y="0.5" width="91" height="29" fill="none"></rect></g><g id="Rectangle_53" data-name="Rectangle 53" transform="translate(497 443)" fill="none" stroke="#1b54f8" stroke-width="1"><rect width="92" height="30" stroke="none"></rect><rect x="0.5" y="0.5" width="91" height="29" fill="none"></rect></g><g id="Rectangle_22" data-name="Rectangle 22" transform="translate(497 131)" fill="none" stroke="#1b54f8" stroke-width="1"><rect width="92" height="30" stroke="none"></rect><rect x="0.5" y="0.5" width="91" height="29" fill="none"></rect></g><g id="Rectangle_21" data-name="Rectangle 21" transform="translate(497 183)" fill="none" stroke="#1b54f8" stroke-width="1"><rect width="92" height="30" stroke="none"></rect><rect x="0.5" y="0.5" width="91" height="29" fill="none"></rect></g><g id="Rectangle_20" data-name="Rectangle 20" transform="translate(497 235)" fill="none" stroke="#1b54f8" stroke-width="1"><rect width="92" height="30" stroke="none"></rect><rect x="0.5" y="0.5" width="91" height="29" fill="none"></rect></g><g id="Rectangle_19" data-name="Rectangle 19" transform="translate(497 287)" fill="none" stroke="#1b54f8" stroke-width="1"><rect width="92" height="30" stroke="none"></rect><rect x="0.5" y="0.5" width="91" height="29" fill="none"></rect></g><g id="Rectangle_18" data-name="Rectangle 18" transform="translate(497 339)" fill="none" stroke="#1b54f8" stroke-width="1"><rect width="92" height="30" stroke="none"></rect><rect x="0.5" y="0.5" width="91" height="29" fill="none"></rect></g></g><g id="Group_39" data-name="Group 39" transform="translate(10 3)"><g id="Rectangle_54" data-name="Rectangle 54" transform="translate(857 391)" fill="#fff" stroke="#1b54f8" stroke-width="1"><rect width="92" height="30" stroke="none"></rect><rect x="0.5" y="0.5" width="91" height="29" fill="none"></rect></g><g id="Rectangle_55" data-name="Rectangle 55" transform="translate(857 443)" fill="#fff" stroke="#1b54f8" stroke-width="1"><rect width="92" height="30" stroke="none"></rect><rect x="0.5" y="0.5" width="91" height="29" fill="none"></rect></g><g id="Rectangle_27" data-name="Rectangle 27" transform="translate(857 131)" fill="#fff" stroke="#1b54f8" stroke-width="1"><rect width="92" height="30" stroke="none"></rect><rect x="0.5" y="0.5" width="91" height="29" fill="none"></rect></g><g id="Rectangle_26" data-name="Rectangle 26" transform="translate(857 183)" fill="#fff" stroke="#1b54f8" stroke-width="1"><rect width="92" height="30" stroke="none"></rect><rect x="0.5" y="0.5" width="91" height="29" fill="none"></rect></g><g id="Rectangle_25" data-name="Rectangle 25" transform="translate(857 235)" fill="#fff" stroke="#1b54f8" stroke-width="1"><rect width="92" height="30" stroke="none"></rect><rect x="0.5" y="0.5" width="91" height="29" fill="none"></rect></g><g id="Rectangle_24" data-name="Rectangle 24" transform="translate(857 287)" fill="#fff" stroke="#1b54f8" stroke-width="1"><rect width="92" height="30" stroke="none"></rect><rect x="0.5" y="0.5" width="91" height="29" fill="none"></rect></g><g id="Rectangle_23" data-name="Rectangle 23" transform="translate(857 339)" fill="#fff" stroke="#1b54f8" stroke-width="1"><rect width="92" height="30" stroke="none"></rect><rect x="0.5" y="0.5" width="91" height="29" fill="none"></rect></g></g><g id="Group_13" data-name="Group 13" transform="translate(-10 -6)"><g id="Group_10" data-name="Group 10" transform="translate(0 103)"><path id="Path_3" data-name="Path 3" d="M223,207.723h41.79" transform="translate(0 0.777)" fill="none" stroke="#051c2c" stroke-width="2"></path><path id="Polygon_1" data-name="Polygon 1" d="M4.382,0,8.764,7.512H0Z" transform="translate(269 204) rotate(90)" fill="#051c2c"></path></g><g id="Group_11" data-name="Group 11" transform="translate(0 155)"><path id="Path_3-2" data-name="Path 3" d="M223,207.723h41.79" transform="translate(0 0.777)" fill="none" stroke="#051c2c" stroke-width="2"></path><path id="Polygon_1-2" data-name="Polygon 1" d="M4.382,0,8.764,7.512H0Z" transform="translate(269 204) rotate(90)" fill="#051c2c"></path></g><g id="Group_12" data-name="Group 12" transform="translate(0 206)"><path id="Path_3-3" data-name="Path 3" d="M223,207.723h41.79" transform="translate(0 0.777)" fill="none" stroke="#051c2c" stroke-width="2"></path><path id="Polygon_1-3" data-name="Polygon 1" d="M4.382,0,8.764,7.512H0Z" transform="translate(269 204) rotate(90)" fill="#051c2c"></path></g></g><g id="Group_42" data-name="Group 42" transform="translate(10 54)"><g id="Group_15" data-name="Group 15" transform="translate(117 -60)"><g id="Group_8" data-name="Group 8"><path id="Path_3-4" data-name="Path 3" d="M223,207.723h41.79" transform="translate(0 0.777)" fill="none" stroke="#051c2c" stroke-width="2"></path><path id="Polygon_1-4" data-name="Polygon 1" d="M4.382,0,8.764,7.512H0Z" transform="translate(269 204) rotate(90)" fill="#051c2c"></path></g><g id="Group_9" data-name="Group 9" transform="translate(0 52)"><path id="Path_3-5" data-name="Path 3" d="M223,207.723h41.79" transform="translate(0 0.777)" fill="none" stroke="#051c2c" stroke-width="2"></path><path id="Polygon_1-5" data-name="Polygon 1" d="M4.382,0,8.764,7.512H0Z" transform="translate(269 204) rotate(90)" fill="#051c2c"></path></g><g id="Group_10-2" data-name="Group 10" transform="translate(0 103)"><path id="Path_3-6" data-name="Path 3" d="M223,207.723h41.79" transform="translate(0 0.777)" fill="none" stroke="#051c2c" stroke-width="2"></path><path id="Polygon_1-6" data-name="Polygon 1" d="M4.382,0,8.764,7.512H0Z" transform="translate(269 204) rotate(90)" fill="#051c2c"></path></g><g id="Group_11-2" data-name="Group 11" transform="translate(0 155)"><path id="Path_3-7" data-name="Path 3" d="M223,207.723h41.79" transform="translate(0 0.777)" fill="none" stroke="#051c2c" stroke-width="2"></path><path id="Polygon_1-7" data-name="Polygon 1" d="M4.382,0,8.764,7.512H0Z" transform="translate(269 204) rotate(90)" fill="#051c2c"></path></g><g id="Group_12-2" data-name="Group 12" transform="translate(0 206)"><path id="Path_3-8" data-name="Path 3" d="M223,207.723h41.79" transform="translate(0 0.777)" fill="none" stroke="#051c2c" stroke-width="2"></path><path id="Polygon_1-8" data-name="Polygon 1" d="M4.382,0,8.764,7.512H0Z" transform="translate(269 204) rotate(90)" fill="#051c2c"></path></g></g></g><g id="Group_8-2" data-name="Group 8" transform="translate(238 -6)"><path id="Path_3-9" data-name="Path 3" d="M223,207.723h41.79" transform="translate(0 0.777)" fill="none" stroke="#051c2c" stroke-width="2"></path><path id="Polygon_1-9" data-name="Polygon 1" d="M4.382,0,8.764,7.512H0Z" transform="translate(269 204) rotate(90)" fill="#051c2c"></path></g><g id="Group_46" data-name="Group 46" transform="translate(238 -58)"><path id="Path_3-10" data-name="Path 3" d="M223,207.723h41.79" transform="translate(0 0.777)" fill="none" stroke="#051c2c" stroke-width="2"></path><path id="Polygon_1-10" data-name="Polygon 1" d="M4.382,0,8.764,7.512H0Z" transform="translate(269 204) rotate(90)" fill="#051c2c"></path></g><g id="Group_49" data-name="Group 49" transform="translate(128 -58)"><path id="Path_3-11" data-name="Path 3" d="M223,207.723h41.79" transform="translate(0 0.777)" fill="none" stroke="#051c2c" stroke-width="2"></path><path id="Polygon_1-11" data-name="Polygon 1" d="M4.382,0,8.764,7.512H0Z" transform="translate(269 204) rotate(90)" fill="#051c2c"></path></g><g id="Group_52" data-name="Group 52" transform="translate(128 251.236)"><path id="Path_3-12" data-name="Path 3" d="M223,207.723h41.79" transform="translate(0 0.777)" fill="none" stroke="#051c2c" stroke-width="2"></path><path id="Polygon_1-12" data-name="Polygon 1" d="M4.382,0,8.764,7.512H0Z" transform="translate(269 204) rotate(90)" fill="#051c2c"></path></g><g id="Group_56" data-name="Group 56" transform="translate(238 251.236)"><path id="Path_3-13" data-name="Path 3" d="M223,207.723h41.79" transform="translate(0 0.777)" fill="none" stroke="#051c2c" stroke-width="2"></path><path id="Polygon_1-13" data-name="Polygon 1" d="M4.382,0,8.764,7.512H0Z" transform="translate(269 204) rotate(90)" fill="#051c2c"></path></g><g id="Group_57" data-name="Group 57" transform="translate(376 251.236)"><path id="Path_3-14" data-name="Path 3" d="M223,207.723h41.79" transform="translate(0 0.777)" fill="none" stroke="#051c2c" stroke-width="2"></path><path id="Polygon_1-14" data-name="Polygon 1" d="M4.382,0,8.764,7.512H0Z" transform="translate(269 204) rotate(90)" fill="#051c2c"></path></g><g id="Group_58" data-name="Group 58" transform="translate(597 251.236)"><path id="Path_3-15" data-name="Path 3" d="M223,207.723h42.79" transform="translate(0 0.777)" fill="none" stroke="#051c2c" stroke-width="2"></path><path id="Polygon_1-15" data-name="Polygon 1" d="M4.382,0,8.764,7.512H0Z" transform="translate(270 204) rotate(90)" fill="#051c2c"></path></g><g id="Group_53" data-name="Group 53" transform="translate(-10 251.236)"><path id="Path_3-16" data-name="Path 3" d="M223,207.723h41.79" transform="translate(0 0.777)" fill="none" stroke="#051c2c" stroke-width="2"></path><path id="Polygon_1-16" data-name="Polygon 1" d="M4.382,0,8.764,7.512H0Z" transform="translate(269 204) rotate(90)" fill="#051c2c"></path></g><g id="Group_54" data-name="Group 54" transform="translate(-121 251.236)"><path id="Path_3-17" data-name="Path 3" d="M223,207.723h41.79" transform="translate(0 0.777)" fill="none" stroke="#051c2c" stroke-width="2"></path><path id="Polygon_1-17" data-name="Polygon 1" d="M4.382,0,8.764,7.512H0Z" transform="translate(269 204) rotate(90)" fill="#051c2c"></path></g><g id="Group_48" data-name="Group 48" transform="translate(376 -58)"><path id="Path_3-18" data-name="Path 3" d="M223,207.723h41.79" transform="translate(0 0.777)" fill="none" stroke="#051c2c" stroke-width="2"></path><path id="Polygon_1-18" data-name="Polygon 1" d="M4.382,0,8.764,7.512H0Z" transform="translate(269 204) rotate(90)" fill="#051c2c"></path></g><g id="Group_51" data-name="Group 51" transform="translate(597 -58)"><path id="Path_3-19" data-name="Path 3" d="M223,207.723h41.79" transform="translate(0 0.777)" fill="none" stroke="#051c2c" stroke-width="2"></path><path id="Polygon_1-19" data-name="Polygon 1" d="M4.382,0,8.764,7.512H0Z" transform="translate(269 204) rotate(90)" fill="#051c2c"></path></g><g id="Group_9-2" data-name="Group 9" transform="translate(238 46)"><path id="Path_3-20" data-name="Path 3" d="M223,207.723h41.79" transform="translate(0 0.777)" fill="none" stroke="#051c2c" stroke-width="2"></path><path id="Polygon_1-20" data-name="Polygon 1" d="M4.382,0,8.764,7.512H0Z" transform="translate(269 204) rotate(90)" fill="#051c2c"></path></g><g id="Group_10-3" data-name="Group 10" transform="translate(238 97)"><path id="Path_3-21" data-name="Path 3" d="M223,207.723h41.79" transform="translate(0 0.777)" fill="none" stroke="#051c2c" stroke-width="2"></path><path id="Polygon_1-21" data-name="Polygon 1" d="M4.382,0,8.764,7.512H0Z" transform="translate(269 204) rotate(90)" fill="#051c2c"></path></g><g id="Group_11-3" data-name="Group 11" transform="translate(238 149)"><path id="Path_3-22" data-name="Path 3" d="M223,207.723h41.79" transform="translate(0 0.777)" fill="none" stroke="#051c2c" stroke-width="2"></path><path id="Polygon_1-22" data-name="Polygon 1" d="M4.382,0,8.764,7.512H0Z" transform="translate(269 204) rotate(90)" fill="#051c2c"></path></g><g id="Group_12-3" data-name="Group 12" transform="translate(238 200)"><path id="Path_3-23" data-name="Path 3" d="M223,207.723h41.79" transform="translate(0 0.777)" fill="none" stroke="#051c2c" stroke-width="2"></path><path id="Polygon_1-23" data-name="Polygon 1" d="M4.382,0,8.764,7.512H0Z" transform="translate(269 204) rotate(90)" fill="#051c2c"></path></g><g id="Group_44" data-name="Group 44" transform="translate(10 54)"><g id="Group_17" data-name="Group 17" transform="translate(366 -60)"><g id="Group_8-3" data-name="Group 8"><path id="Path_3-24" data-name="Path 3" d="M223,207.723h41.79" transform="translate(0 0.777)" fill="none" stroke="#051c2c" stroke-width="2"></path><path id="Polygon_1-24" data-name="Polygon 1" d="M4.382,0,8.764,7.512H0Z" transform="translate(269 204) rotate(90)" fill="#051c2c"></path></g><g id="Group_9-3" data-name="Group 9" transform="translate(0 52)"><path id="Path_3-25" data-name="Path 3" d="M223,207.723h41.79" transform="translate(0 0.777)" fill="none" stroke="#051c2c" stroke-width="2"></path><path id="Polygon_1-25" data-name="Polygon 1" d="M4.382,0,8.764,7.512H0Z" transform="translate(269 204) rotate(90)" fill="#051c2c"></path></g><g id="Group_10-4" data-name="Group 10" transform="translate(0 103)"><path id="Path_3-26" data-name="Path 3" d="M223,207.723h41.79" transform="translate(0 0.777)" fill="none" stroke="#051c2c" stroke-width="2"></path><path id="Polygon_1-26" data-name="Polygon 1" d="M4.382,0,8.764,7.512H0Z" transform="translate(269 204) rotate(90)" fill="#051c2c"></path></g><g id="Group_11-4" data-name="Group 11" transform="translate(0 155)"><path id="Path_3-27" data-name="Path 3" d="M223,207.723h41.79" transform="translate(0 0.777)" fill="none" stroke="#051c2c" stroke-width="2"></path><path id="Polygon_1-27" data-name="Polygon 1" d="M4.382,0,8.764,7.512H0Z" transform="translate(269 204) rotate(90)" fill="#051c2c"></path></g><g id="Group_12-4" data-name="Group 12" transform="translate(0 206)"><path id="Path_3-28" data-name="Path 3" d="M223,207.723h41.79" transform="translate(0 0.777)" fill="none" stroke="#051c2c" stroke-width="2"></path><path id="Polygon_1-28" data-name="Polygon 1" d="M4.382,0,8.764,7.512H0Z" transform="translate(269 204) rotate(90)" fill="#051c2c"></path></g></g></g><g id="Group_45" data-name="Group 45" transform="translate(10 54)"><g id="Group_18" data-name="Group 18" transform="translate(810 144)"><g id="Group_8-4" data-name="Group 8" transform="translate(0)"><path id="Path_3-29" data-name="Path 3" d="M223,207.723h42.79" transform="translate(-223 -203.223)" fill="none" stroke="#051c2c" stroke-width="2"></path><path id="Polygon_1-29" data-name="Polygon 1" d="M4.382,0,8.764,7.512H0Z" transform="translate(47) rotate(90)" fill="#051c2c"></path></g><g id="Group_9-4" data-name="Group 9" transform="translate(0 52)"><path id="Path_3-30" data-name="Path 3" d="M223,207.723h42.79" transform="translate(-223 -203.223)" fill="none" stroke="#051c2c" stroke-width="2"></path><path id="Polygon_1-30" data-name="Polygon 1" d="M4.382,0,8.764,7.512H0Z" transform="translate(47) rotate(90)" fill="#051c2c"></path></g><g id="Group_10-5" data-name="Group 10" transform="translate(0 103)"><path id="Path_3-31" data-name="Path 3" d="M223,207.723h42.79" transform="translate(-223 -203.223)" fill="none" stroke="#051c2c" stroke-width="2"></path><path id="Polygon_1-31" data-name="Polygon 1" d="M4.382,0,8.764,7.512H0Z" transform="translate(47) rotate(90)" fill="#051c2c"></path></g><g id="Group_11-5" data-name="Group 11" transform="translate(0 155)"><path id="Path_3-32" data-name="Path 3" d="M223,207.723h42.79" transform="translate(-223 -203.223)" fill="none" stroke="#051c2c" stroke-width="2"></path><path id="Polygon_1-32" data-name="Polygon 1" d="M4.382,0,8.764,7.512H0Z" transform="translate(47) rotate(90)" fill="#051c2c"></path></g><g id="Group_12-5" data-name="Group 12" transform="translate(0 206)"><path id="Path_3-33" data-name="Path 3" d="M223,207.723h42.79" transform="translate(-223 -203.223)" fill="none" stroke="#051c2c" stroke-width="2"></path><path id="Polygon_1-33" data-name="Polygon 1" d="M4.382,0,8.764,7.512H0Z" transform="translate(47) rotate(90)" fill="#051c2c"></path></g></g></g><g id="Group_40" data-name="Group 40" transform="translate(10 54)"><g id="Group_14" data-name="Group 14" transform="translate(-131 -60)"><g id="Group_10-6" data-name="Group 10" transform="translate(0 103)"><path id="Path_3-34" data-name="Path 3" d="M223,207.723h41.79" transform="translate(0 0.777)" fill="none" stroke="#051c2c" stroke-width="2"></path><path id="Polygon_1-34" data-name="Polygon 1" d="M4.382,0,8.764,7.512H0Z" transform="translate(269 204) rotate(90)" fill="#051c2c"></path></g><g id="Group_11-6" data-name="Group 11" transform="translate(0 155)"><path id="Path_3-35" data-name="Path 3" d="M223,207.723h41.79" transform="translate(0 0.777)" fill="none" stroke="#051c2c" stroke-width="2"></path><path id="Polygon_1-35" data-name="Polygon 1" d="M4.382,0,8.764,7.512H0Z" transform="translate(269 204) rotate(90)" fill="#051c2c"></path></g><g id="Group_12-6" data-name="Group 12" transform="translate(0 206)"><path id="Path_3-36" data-name="Path 3" d="M223,207.723h41.79" transform="translate(0 0.777)" fill="none" stroke="#051c2c" stroke-width="2"></path><path id="Polygon_1-36" data-name="Polygon 1" d="M4.382,0,8.764,7.512H0Z" transform="translate(269 204) rotate(90)" fill="#051c2c"></path></g></g></g><path id="Path_19" data-name="Path 19" d="M7607,302h45.012" transform="translate(-6897 3.5)" fill="none" stroke="#051c2c" stroke-linecap="round" stroke-width="2" stroke-dasharray="2 4"></path><path id="Path_20" data-name="Path 20" d="M6916,147.5h-13.493V398.249h39.012" transform="translate(-6846 75.5)" fill="none" stroke="#051c2c" stroke-width="2"></path><text id="Input_Sequence" data-name="Input Sequence" transform="translate(23 273) rotate(90)" fill="#051c2c" font-size="20" font-family="OpenSans-Semibold, Open Sans" font-weight="600"><tspan x="0" y="0">Input Sequence</tspan></text><path id="Path_21" data-name="Path 21" d="M6911.507,300.874h-15.935" transform="translate(-6855 52.126)" fill="none" stroke="#051c2c" stroke-width="2"></path><g id="Rectangle_56" data-name="Rectangle 56" transform="translate(239 121)" fill="none" stroke="#1b54f8" stroke-width="1"><rect width="132" height="160" rx="11" stroke="none"></rect><rect x="0.5" y="0.5" width="131" height="159" rx="10.5" fill="none"></rect></g></g></svg> 